<svg width="12" height="10" viewBox="0 0 12 10" fill="none" xmlns="http://www.w3.org/2000/svg">
<path d="M0.666667 6.99992H11.3333C11.7 6.99992 12 6.69992 12 6.33325C12 5.96659 11.7 5.66658 11.3333 5.66658H0.666667C0.3 5.66658 0 5.96659 0 6.33325C0 6.69992 0.3 6.99992 0.666667 6.99992ZM0.666667 9.66658H11.3333C11.7 9.66658 12 9.36658 12 8.99992C12 8.63325 11.7 8.33325 11.3333 8.33325H0.666667C0.3 8.33325 0 8.63325 0 8.99992C0 9.36658 0.3 9.66658 0.666667 9.66658ZM0.666667 4.33325H11.3333C11.7 4.33325 12 4.03325 12 3.66658C12 3.29992 11.7 2.99992 11.3333 2.99992H0.666667C0.3 2.99992 0 3.29992 0 3.66658C0 4.03325 0.3 4.33325 0.666667 4.33325ZM0 0.999919C0 1.36659 0.3 1.66659 0.666667 1.66659H11.3333C11.7 1.66659 12 1.36659 12 0.999919C12 0.633252 11.7 0.333252 11.3333 0.333252H0.666667C0.3 0.333252 0 0.633252 0 0.999919Z" fill="black"/>
</svg>
