<svg width="14" height="12" viewBox="0 0 14 12" fill="none" xmlns="http://www.w3.org/2000/svg">
<path d="M12.3333 0.666748H1.66659C0.933252 0.666748 0.339919 1.26675 0.339919 2.00008L0.333252 10.0001C0.333252 10.7334 0.933252 11.3334 1.66659 11.3334H12.3333C13.0666 11.3334 13.6666 10.7334 13.6666 10.0001V2.00008C13.6666 1.26675 13.0666 0.666748 12.3333 0.666748ZM11.6666 10.0001H2.33325C1.96659 10.0001 1.66659 9.70008 1.66659 9.33342V3.33341L6.29325 6.22675C6.72658 6.50008 7.27325 6.50008 7.70658 6.22675L12.3333 3.33341V9.33342C12.3333 9.70008 12.0333 10.0001 11.6666 10.0001ZM6.99992 5.33342L1.66659 2.00008H12.3333L6.99992 5.33342Z" fill="white"/>
</svg>
