<svg width="160" height="30" viewBox="0 0 160 30" fill="none" xmlns="http://www.w3.org/2000/svg">
<path d="M132.025 8.6355L140.053 8.4436L139.957 12.8093C140.149 12.3295 140.368 11.8711 140.613 11.434C140.869 10.9862 141.157 10.5865 141.476 10.2346C141.796 9.88284 142.153 9.59499 142.548 9.37111C142.942 9.13657 143.379 8.99264 143.859 8.93934C144.467 8.93934 145.037 9.05128 145.57 9.27516C146.103 9.48838 146.588 9.78689 147.025 10.1707C147.473 10.5438 147.868 10.9862 148.209 11.498C148.55 12.0097 148.838 12.5534 149.072 13.1291C149.307 13.7048 149.477 14.2965 149.584 14.9042C149.691 15.5012 149.733 16.0875 149.712 16.6632C149.701 17.2602 149.685 17.8732 149.664 18.5022C149.643 19.0459 149.616 19.6483 149.584 20.3093C149.563 20.9596 149.531 21.5993 149.488 22.2283L151.743 22.2602V22.8519L142.868 22.66V22.0683L144.611 22.1003C144.867 19.2538 144.931 16.37 144.803 13.4489C144.835 12.1163 144.76 11.1462 144.579 10.5385C144.408 9.93081 144.046 9.61631 143.491 9.59499C143.31 9.64829 143.07 9.74957 142.772 9.89883C142.473 10.0481 142.153 10.3093 141.812 10.6824C141.482 11.0449 141.146 11.5459 140.805 12.1856C140.474 12.8146 140.181 13.6302 139.925 14.6323L139.765 22.0683H141.428V22.66H133.113V22.0683H134.552L134.872 9.16322L132.025 9.22719V8.6355Z" fill="black"/>
<path d="M132.937 16.823C132.937 17.5586 132.809 18.2462 132.553 18.8859C132.308 19.5149 131.972 20.0959 131.546 20.629C131.13 21.1514 130.65 21.6204 130.107 22.0362C129.574 22.4413 129.014 22.7825 128.428 23.0597C127.852 23.3475 127.276 23.5661 126.7 23.7153C126.125 23.8646 125.592 23.9392 125.101 23.9392H124.941C124.451 23.9286 123.929 23.8486 123.374 23.6993C122.831 23.5501 122.287 23.3315 121.743 23.0437C121.21 22.7665 120.698 22.42 120.208 22.0042C119.728 21.5885 119.302 21.1034 118.929 20.549C118.555 19.984 118.257 19.355 118.033 18.662C117.809 17.9584 117.697 17.1855 117.697 16.3433C117.697 15.4797 117.831 14.6908 118.097 13.9765C118.364 13.2516 118.71 12.6066 119.136 12.0416C119.574 11.4765 120.064 10.9861 120.608 10.5703C121.162 10.1546 121.716 9.80808 122.271 9.5309C122.836 9.25371 123.374 9.05115 123.886 8.92322C124.408 8.78463 124.861 8.71533 125.245 8.71533H125.373C126.023 8.73665 126.663 8.85392 127.292 9.06714C127.921 9.2697 128.513 9.55222 129.067 9.91469C129.632 10.2772 130.149 10.7089 130.618 11.21C131.098 11.7004 131.509 12.2441 131.85 12.8411C132.191 13.4381 132.457 14.0725 132.649 14.7441C132.841 15.4158 132.937 16.1087 132.937 16.823ZM127.82 16.5671C127.82 16.3006 127.82 15.9328 127.82 15.4637C127.82 14.9946 127.799 14.4936 127.756 13.9605C127.724 13.4168 127.66 12.8678 127.564 12.3134C127.468 11.759 127.324 11.258 127.132 10.8102C126.94 10.3625 126.69 9.99998 126.381 9.72279C126.082 9.43495 125.704 9.29102 125.245 9.29102C124.371 9.29102 123.678 9.88804 123.166 11.0821C122.665 12.2761 122.415 14.0831 122.415 16.5032C122.415 17.7079 122.463 18.742 122.559 19.6055C122.665 20.4691 122.825 21.178 123.038 21.7324C123.252 22.2868 123.529 22.6919 123.87 22.9477C124.211 23.2143 124.622 23.3475 125.101 23.3475H125.245C125.704 23.3262 126.082 23.1823 126.381 22.9158C126.69 22.6492 126.94 22.2441 127.132 21.7004C127.335 21.146 127.484 20.4477 127.58 19.6055C127.687 18.7633 127.767 17.7505 127.82 16.5671Z" fill="black"/>
<path d="M116.109 14.6642C116.109 15.2292 115.928 15.7409 115.565 16.1993C115.203 16.6471 114.734 17.0309 114.158 17.3507C113.593 17.6706 112.959 17.9264 112.255 18.1183C111.562 18.2996 110.88 18.3955 110.208 18.4062C110.165 18.4062 110.069 18.4008 109.92 18.3902C109.771 18.3795 109.59 18.3475 109.376 18.2942C109.163 18.2303 108.923 18.1343 108.657 18.0064C108.39 17.8784 108.124 17.6919 107.857 17.4467C107.889 18.3955 107.975 19.2111 108.113 19.8934C108.262 20.565 108.454 21.1194 108.689 21.5565C108.934 21.9829 109.217 22.2974 109.536 22.5C109.867 22.6919 110.224 22.7878 110.608 22.7878C110.832 22.7878 111.13 22.7132 111.503 22.5639C111.887 22.4147 112.282 22.1855 112.687 21.8763C113.102 21.5671 113.508 21.1727 113.902 20.6929C114.296 20.2132 114.627 19.6375 114.894 18.9659L115.357 17.7825L115.933 17.9744L115.677 18.694C115.443 19.323 115.133 19.92 114.75 20.4851C114.366 21.0501 113.918 21.5565 113.406 22.0042C112.905 22.4413 112.346 22.7932 111.727 23.0597C111.109 23.3369 110.448 23.4968 109.744 23.5394C108.518 23.4968 107.479 23.2782 106.626 22.8838C105.773 22.4893 105.08 21.9882 104.547 21.3806C104.014 20.7729 103.625 20.0959 103.38 19.3497C103.145 18.6034 103.028 17.8518 103.028 17.0949C103.028 16.5938 103.102 16.0501 103.252 15.4637C103.412 14.8667 103.641 14.2697 103.939 13.6727C104.238 13.065 104.6 12.4787 105.027 11.9136C105.464 11.3486 105.954 10.8475 106.498 10.4104C107.052 9.97332 107.655 9.62684 108.305 9.37098C108.966 9.10445 109.675 8.97119 110.432 8.97119C111.125 8.99251 111.743 9.09912 112.287 9.29102C112.841 9.47226 113.326 9.71746 113.742 10.0266C114.169 10.3251 114.531 10.6663 114.83 11.0501C115.128 11.4339 115.373 11.8337 115.565 12.2494C115.757 12.6546 115.896 13.0703 115.981 13.4968C116.066 13.9126 116.109 14.3017 116.109 14.6642ZM110.176 9.56288C109.835 9.5842 109.515 9.7761 109.217 10.1386C108.929 10.501 108.678 10.9968 108.465 11.6258C108.262 12.2441 108.102 12.9744 107.985 13.8166C107.868 14.6588 107.809 15.565 107.809 16.5352C108.076 16.8443 108.342 17.0842 108.609 17.2548C108.875 17.4253 109.121 17.5533 109.344 17.6386C109.568 17.7132 109.755 17.7612 109.904 17.7825C110.053 17.8038 110.144 17.8145 110.176 17.8145C110.592 17.8038 110.933 17.7132 111.199 17.5426C111.477 17.372 111.69 17.1375 111.839 16.839C111.999 16.5405 112.111 16.1833 112.175 15.7676C112.239 15.3518 112.271 14.888 112.271 14.3763C112.271 13.7366 112.228 13.129 112.143 12.5533C112.068 11.9669 111.946 11.4552 111.775 11.0181C111.615 10.5703 111.402 10.2185 111.136 9.96266C110.869 9.69614 110.549 9.56288 110.176 9.56288Z" fill="black"/>
<path d="M99.9255 9.49902H105.299V10.0907H102.772C101.024 13.7154 99.6749 16.4447 98.7261 18.2783C98.1717 19.3551 97.6867 20.2719 97.2709 21.0289C97.0364 21.4766 96.7752 21.9937 96.4873 22.58C96.1995 23.1664 95.8743 23.7687 95.5118 24.3871C95.16 25.0161 94.7709 25.6291 94.3445 26.2261C93.918 26.8338 93.4543 27.3722 92.9532 27.8412C92.4628 28.321 91.9297 28.7048 91.3541 28.9926C90.789 29.2911 90.1867 29.4404 89.547 29.4404C89.1845 29.4404 88.8487 29.3924 88.5396 29.2965C88.2304 29.2005 87.9532 29.0779 87.708 28.9287C87.4628 28.7901 87.2549 28.6302 87.0843 28.4489C86.9244 28.2677 86.8071 28.0971 86.7325 27.9372C86.6152 27.6707 86.5513 27.3508 86.5406 26.9777C86.5193 26.6046 86.5833 26.2528 86.7325 25.9223C86.8818 25.5918 87.1216 25.3093 87.4521 25.0747C87.7933 24.8508 88.2624 24.7442 88.8594 24.7549C89.2858 24.7655 89.659 24.8455 89.9788 24.9948C90.2986 25.144 90.5971 25.3039 90.8743 25.4745C91.1515 25.6557 91.4233 25.821 91.6899 25.9702C91.9671 26.1302 92.2656 26.2154 92.5854 26.2261C92.9692 26.2261 93.305 26.1248 93.5929 25.9223C93.8807 25.7197 94.1366 25.4638 94.3604 25.1547C94.5843 24.8455 94.7869 24.5097 94.9681 24.1472C95.1494 23.7954 95.3253 23.4649 95.4958 23.1557L88.9233 10.1227L87.2123 10.0907V9.49902L96.8071 9.69092V10.2826L94.7123 10.2506L98.3583 17.7186C98.8167 16.8125 99.3551 15.7357 99.9735 14.4884C100.602 13.241 101.317 11.7751 102.116 10.0907H99.9255V9.49902Z" fill="black"/>
<path d="M76.823 1.00746L73.9925 0.911514C73.9712 1.07143 73.9498 1.37527 73.9285 1.82303C73.9072 2.26013 73.8805 2.91045 73.8486 3.77399C73.8166 4.63753 73.7846 5.74094 73.7526 7.08422C73.7206 8.41684 73.6833 10.0586 73.6407 12.0096L82.2921 11.8817L82.356 0.719616L78.8859 0.591684V0L92.2388 0.415778V1.00746L88.8006 0.911514C88.7899 1.03945 88.7739 1.27399 88.7526 1.61514C88.7313 1.95629 88.7046 2.46269 88.6727 3.13433C88.6513 3.79531 88.6247 4.64819 88.5927 5.69296C88.5607 6.73774 88.5234 8.02772 88.4808 9.5629C88.4488 11.0981 88.4115 12.9051 88.3688 14.984C88.3262 17.0629 88.2835 19.467 88.2409 22.1962H92.1748V22.7878H79.1417V22.1962H82.2601L82.2921 12.4733L73.6087 12.6013C73.5874 13.2729 73.5714 13.9659 73.5607 14.6802C73.5501 15.3945 73.5394 16.1461 73.5287 16.935C73.5181 17.7132 73.5021 18.5394 73.4808 19.4136C73.4701 20.2772 73.4594 21.2047 73.4488 22.1962H76.743V22.7878H63.678V22.1962H67.452L67.5479 0.719616L63.4541 0.591684V0L76.823 0.415778V1.00746Z" fill="black"/>
<path d="M54.8136 10.0107L54.4138 22.2282L56.0769 22.0683L56.1409 22.66L49.9202 23.2197L49.9522 20.5971C49.771 20.9916 49.5844 21.338 49.3925 21.6365C49.2006 21.9351 49.0034 22.1962 48.8008 22.4201C48.6089 22.6333 48.417 22.8146 48.2251 22.9638C48.0332 23.1238 47.852 23.2517 47.6814 23.3476C47.2763 23.5822 46.8765 23.7154 46.482 23.7474C45.5545 23.7474 44.7443 23.5609 44.0513 23.1877C43.3584 22.8252 42.7827 22.3402 42.3243 21.7325C41.8658 21.1248 41.5194 20.4372 41.2848 19.6696C41.0609 18.8913 40.949 18.0971 40.949 17.2869L41.2848 10.4745L39.3818 10.4425V9.85083L46.3541 9.94678C46.1196 11.8977 45.9383 13.5449 45.8104 14.8881C45.6931 16.2208 45.6078 17.3029 45.5545 18.1344C45.4906 19.1152 45.4533 19.9041 45.4426 20.5012C45.4426 21.0555 45.4852 21.5033 45.5705 21.8444C45.6558 22.1856 45.7678 22.4521 45.9064 22.644C46.0449 22.8359 46.1942 22.9638 46.3541 23.0278C46.514 23.1024 46.6686 23.1451 46.8179 23.1557C47.0418 23.1024 47.287 22.9958 47.5535 22.8359C47.8307 22.676 48.1078 22.4308 48.385 22.1003C48.6729 21.7591 48.9501 21.3167 49.2166 20.773C49.4831 20.2293 49.7283 19.5577 49.9522 18.7581L50.0641 10.5704L47.6974 10.5385V9.94678L54.8136 10.0107Z" fill="black"/>
<path d="M34.1047 9.49902H39.4778V10.0907H36.9512C35.2028 13.7154 33.8541 16.4447 32.9053 18.2783C32.3509 19.3551 31.8659 20.2719 31.4501 21.0289C31.2156 21.4766 30.9544 21.9937 30.6665 22.58C30.3787 23.1664 30.0535 23.7687 29.691 24.3871C29.3392 25.0161 28.9501 25.6291 28.5237 26.2261C28.0972 26.8338 27.6335 27.3722 27.1324 27.8412C26.642 28.321 26.1089 28.7048 25.5333 28.9926C24.9682 29.2911 24.3659 29.4404 23.7262 29.4404C23.3637 29.4404 23.0279 29.3924 22.7188 29.2965C22.4096 29.2005 22.1324 29.0779 21.8872 28.9287C21.642 28.7901 21.4341 28.6302 21.2635 28.4489C21.1036 28.2677 20.9863 28.0971 20.9117 27.9372C20.7944 27.6707 20.7305 27.3508 20.7198 26.9777C20.6985 26.6046 20.7625 26.2528 20.9117 25.9223C21.061 25.5918 21.3008 25.3093 21.6313 25.0747C21.9725 24.8508 22.4416 24.7442 23.0386 24.7549C23.465 24.7655 23.8382 24.8455 24.158 24.9948C24.4778 25.144 24.7763 25.3039 25.0535 25.4745C25.3307 25.6557 25.6025 25.821 25.8691 25.9702C26.1463 26.1302 26.4448 26.2154 26.7646 26.2261C27.1484 26.2261 27.4842 26.1248 27.7721 25.9223C28.0599 25.7197 28.3158 25.4638 28.5396 25.1547C28.7635 24.8455 28.9661 24.5097 29.1473 24.1472C29.3286 23.7954 29.5045 23.4649 29.675 23.1557L23.1025 10.1227L21.3915 10.0907V9.49902L30.9863 9.69092V10.2826L28.8915 10.2506L32.5375 17.7186C32.9959 16.8125 33.5343 15.7357 34.1527 14.4884C34.7817 13.241 35.4959 11.7751 36.2955 10.0907H34.1047V9.49902Z" fill="black"/>
<path d="M13.5288 22.2281L15.8156 22.1962L10.2505 14.6962H10.1546C10.0693 14.7175 9.99467 14.7281 9.9307 14.7281C9.86674 14.7281 9.79744 14.7281 9.72281 14.7281L9.59488 22.2281H12.3454V22.8198H0V22.2281H3.80597L3.99787 1.1034C3.43284 1.1034 2.85714 1.10873 2.27079 1.1194C1.68444 1.13006 1.03945 1.13539 0.335821 1.13539V0.559694C2.6919 0.549033 4.62687 0.538372 6.14073 0.527711C7.65458 0.51705 8.84328 0.506389 9.70682 0.495728C10.7196 0.485067 11.4819 0.479736 11.9936 0.479736C12.5373 0.479736 13.1716 0.495728 13.8966 0.527711C14.6215 0.559694 15.3678 0.650312 16.1354 0.799566C16.903 0.938158 17.6599 1.15671 18.4062 1.45522C19.1525 1.75372 19.8188 2.1695 20.4051 2.70255C20.9915 3.22494 21.4659 3.88592 21.8284 4.68549C22.1908 5.48507 22.3721 6.45522 22.3721 7.59594C22.3721 8.61939 22.2175 9.50959 21.9083 10.2665C21.5991 11.0234 21.162 11.6684 20.597 12.2015C20.0426 12.7345 19.371 13.1716 18.5821 13.5128C17.7932 13.8433 16.9136 14.0991 15.9435 14.2804L22.7239 22.0682L22.6599 22.1002L25.3465 22.0682V22.6599L13.5288 22.8198V22.2281ZM16.7431 7.56396C16.7431 6.58315 16.6631 5.74626 16.5032 5.0533C16.3433 4.34967 16.1141 3.76332 15.8156 3.29423C15.5277 2.81449 15.1759 2.4307 14.7601 2.14285C14.3443 1.855 13.8806 1.63645 13.3689 1.4872C12.8678 1.33795 12.3241 1.242 11.7377 1.19935C11.162 1.14605 10.5597 1.11406 9.9307 1.1034L9.72281 14.1045H10.1226C10.9542 14.0192 11.6844 13.8593 12.3134 13.6247C12.9424 13.3902 13.4861 13.113 13.9446 12.7932C14.4136 12.4733 14.8028 12.1215 15.1119 11.7377C15.4318 11.3433 15.6983 10.9541 15.9115 10.5704C16.4019 9.66417 16.6791 8.66204 16.7431 7.56396Z" fill="black"/>
<circle cx="155.906" cy="4.43488" r="4.09382" fill="#920028"/>
</svg>
