<svg width="16" height="13" viewBox="0 0 16 13" fill="none" xmlns="http://www.w3.org/2000/svg">
<path d="M8.74663 0.373353L5.05329 4.06669C4.80663 4.31335 4.66663 4.65335 4.66663 5.00669V11.6667C4.66663 12.4 5.26663 13 5.99996 13H12C12.5333 13 13.0133 12.68 13.2266 12.1934L15.4 7.12002C15.96 5.80002 14.9933 4.33335 13.56 4.33335H9.79329L10.4266 1.28002C10.4933 0.946687 10.3933 0.606687 10.1533 0.366687C9.75996 -0.01998 9.13329 -0.01998 8.74663 0.373353ZM1.99996 13C2.73329 13 3.33329 12.4 3.33329 11.6667V6.33335C3.33329 5.60002 2.73329 5.00002 1.99996 5.00002C1.26663 5.00002 0.666626 5.60002 0.666626 6.33335V11.6667C0.666626 12.4 1.26663 13 1.99996 13Z" fill="white"/>
</svg>
