<svg width="16" height="16" viewBox="0 0 16 16" fill="none" xmlns="http://www.w3.org/2000/svg">
<path d="M4.03341 3.26003L3.77341 3.00003C3.51341 2.74003 3.09342 2.7467 2.84008 3.00003L2.83341 3.0067C2.57341 3.2667 2.57341 3.6867 2.83341 3.94003L3.09341 4.20003C3.35341 4.46003 3.76675 4.46003 4.02675 4.20003L4.03341 4.19337C4.29341 3.94003 4.29341 3.51337 4.03341 3.26003ZM2.00675 7.50003H1.32675C0.960081 7.50003 0.666748 7.79337 0.666748 8.16003V8.1667C0.666748 8.53337 0.960081 8.8267 1.32675 8.8267H2.00008C2.37341 8.83337 2.66675 8.54003 2.66675 8.17337V8.1667C2.66675 7.79337 2.37341 7.50003 2.00675 7.50003ZM8.00675 0.866699H8.00008C7.62675 0.866699 7.33342 1.16003 7.33342 1.5267V2.1667C7.33342 2.53337 7.62675 2.8267 7.99341 2.8267H8.00008C8.37341 2.83337 8.66675 2.54003 8.66675 2.17337V1.5267C8.66675 1.16003 8.37341 0.866699 8.00675 0.866699ZM13.1667 3.0067C12.9067 2.7467 12.4867 2.7467 12.2267 3.00003L11.9667 3.26003C11.7067 3.52003 11.7067 3.94003 11.9667 4.19337L11.9734 4.20003C12.2334 4.46003 12.6534 4.46003 12.9067 4.20003L13.1667 3.94003C13.4267 3.68003 13.4267 3.2667 13.1667 3.0067ZM11.9601 13.0734L12.2201 13.3334C12.4801 13.5934 12.9001 13.5934 13.1601 13.3334C13.4201 13.0734 13.4201 12.6534 13.1601 12.3934L12.9001 12.1334C12.6401 11.8734 12.2201 11.88 11.9667 12.1334C11.7001 12.4 11.7001 12.8134 11.9601 13.0734ZM13.3334 8.16003V8.1667C13.3334 8.53337 13.6267 8.8267 13.9934 8.8267H14.6667C15.0334 8.8267 15.3267 8.53337 15.3267 8.1667V8.16003C15.3267 7.79337 15.0334 7.50003 14.6667 7.50003H13.9934C13.6267 7.50003 13.3334 7.79337 13.3334 8.16003ZM8.00008 4.1667C5.79342 4.1667 4.00008 5.96003 4.00008 8.1667C4.00008 10.3734 5.79342 12.1667 8.00008 12.1667C10.2067 12.1667 12.0001 10.3734 12.0001 8.1667C12.0001 5.96003 10.2067 4.1667 8.00008 4.1667ZM7.99341 15.4667H8.00008C8.36675 15.4667 8.66008 15.1734 8.66008 14.8067V14.1667C8.66008 13.8 8.36675 13.5067 8.00008 13.5067H7.99341C7.62675 13.5067 7.33342 13.8 7.33342 14.1667V14.8067C7.33342 15.1734 7.62675 15.4667 7.99341 15.4667ZM2.83341 13.3267C3.09341 13.5867 3.51341 13.5867 3.77341 13.3267L4.03341 13.0667C4.29341 12.8067 4.28675 12.3867 4.03341 12.1334L4.02675 12.1267C3.76675 11.8667 3.34675 11.8667 3.08675 12.1267L2.82675 12.3867C2.57341 12.6534 2.57341 13.0667 2.83341 13.3267Z" fill="white"/>
</svg>
